<svg width="603" height="114" viewBox="0 0 603 114" fill="none" xmlns="http://www.w3.org/2000/svg">
<rect width="603" height="114" rx="20" fill="#1BAE80"/>
<path d="M123.972 49.1307C123.835 47.7557 123.25 46.6875 122.216 45.9261C121.182 45.1648 119.778 44.7841 118.006 44.7841C116.801 44.7841 115.784 44.9545 114.955 45.2955C114.125 45.625 113.489 46.0852 113.045 46.6761C112.614 47.267 112.398 47.9375 112.398 48.6875C112.375 49.3125 112.506 49.858 112.79 50.3239C113.085 50.7898 113.489 51.1932 114 51.5341C114.511 51.8636 115.102 52.1534 115.773 52.4034C116.443 52.642 117.159 52.8466 117.92 53.017L121.057 53.767C122.58 54.108 123.977 54.5625 125.25 55.1307C126.523 55.6989 127.625 56.3977 128.557 57.2273C129.489 58.0568 130.21 59.0341 130.722 60.1591C131.244 61.2841 131.511 62.5739 131.523 64.0284C131.511 66.1648 130.966 68.017 129.886 69.5852C128.818 71.142 127.273 72.3523 125.25 73.2159C123.239 74.0682 120.813 74.4943 117.972 74.4943C115.153 74.4943 112.699 74.0625 110.608 73.1989C108.528 72.3352 106.903 71.0568 105.733 69.3636C104.574 67.6591 103.966 65.5511 103.909 63.0398H111.051C111.131 64.2102 111.466 65.1875 112.057 65.9716C112.659 66.7443 113.46 67.3295 114.46 67.7273C115.472 68.1136 116.614 68.3068 117.886 68.3068C119.136 68.3068 120.222 68.125 121.142 67.7614C122.074 67.3977 122.795 66.892 123.307 66.2443C123.818 65.5966 124.074 64.8523 124.074 64.0114C124.074 63.2273 123.841 62.5682 123.375 62.0341C122.92 61.5 122.25 61.0455 121.364 60.6705C120.489 60.2955 119.415 59.9545 118.142 59.6477L114.341 58.6932C111.398 57.9773 109.074 56.858 107.369 55.3352C105.665 53.8125 104.818 51.7614 104.83 49.1818C104.818 47.0682 105.381 45.2216 106.517 43.642C107.665 42.0625 109.239 40.8295 111.239 39.9432C113.239 39.0568 115.511 38.6136 118.057 38.6136C120.648 38.6136 122.909 39.0568 124.841 39.9432C126.784 40.8295 128.295 42.0625 129.375 43.642C130.455 45.2216 131.011 47.0511 131.045 49.1307H123.972ZM147.803 74.5114C145.109 74.5114 142.791 73.9659 140.848 72.875C138.916 71.7727 137.428 70.2159 136.382 68.2045C135.337 66.1818 134.814 63.7898 134.814 61.0284C134.814 58.3352 135.337 55.9716 136.382 53.9375C137.428 51.9034 138.899 50.3182 140.797 49.1818C142.706 48.0455 144.945 47.4773 147.513 47.4773C149.24 47.4773 150.848 47.7557 152.337 48.3125C153.837 48.858 155.144 49.6818 156.257 50.7841C157.382 51.8864 158.257 53.2727 158.882 54.9432C159.507 56.6023 159.82 58.5455 159.82 60.7727V62.767H137.712V58.267H152.984C152.984 57.2216 152.757 56.2955 152.303 55.4886C151.848 54.6818 151.217 54.0511 150.411 53.5966C149.615 53.1307 148.689 52.8977 147.632 52.8977C146.53 52.8977 145.553 53.1534 144.7 53.6648C143.859 54.1648 143.2 54.8409 142.723 55.6932C142.246 56.5341 142.002 57.4716 141.99 58.5057V62.7841C141.99 64.0795 142.229 65.1989 142.706 66.142C143.195 67.0852 143.882 67.8125 144.769 68.3239C145.655 68.8352 146.706 69.0909 147.922 69.0909C148.729 69.0909 149.467 68.9773 150.138 68.75C150.808 68.5227 151.382 68.1818 151.859 67.7273C152.337 67.2727 152.7 66.7159 152.95 66.0568L159.666 66.5C159.325 68.1136 158.627 69.5227 157.57 70.7273C156.524 71.9205 155.172 72.8523 153.513 73.5227C151.865 74.1818 149.962 74.5114 147.803 74.5114ZM171.34 39.0909V74H164.078V39.0909H171.34ZM188.608 74.5114C185.915 74.5114 183.597 73.9659 181.654 72.875C179.722 71.7727 178.233 70.2159 177.188 68.2045C176.142 66.1818 175.62 63.7898 175.62 61.0284C175.62 58.3352 176.142 55.9716 177.188 53.9375C178.233 51.9034 179.705 50.3182 181.603 49.1818C183.512 48.0455 185.75 47.4773 188.319 47.4773C190.046 47.4773 191.654 47.7557 193.142 48.3125C194.642 48.858 195.949 49.6818 197.063 50.7841C198.188 51.8864 199.063 53.2727 199.688 54.9432C200.313 56.6023 200.625 58.5455 200.625 60.7727V62.767H178.517V58.267H193.79C193.79 57.2216 193.563 56.2955 193.108 55.4886C192.654 54.6818 192.023 54.0511 191.216 53.5966C190.421 53.1307 189.495 52.8977 188.438 52.8977C187.336 52.8977 186.358 53.1534 185.506 53.6648C184.665 54.1648 184.006 54.8409 183.529 55.6932C183.051 56.5341 182.807 57.4716 182.796 58.5057V62.7841C182.796 64.0795 183.034 65.1989 183.512 66.142C184 67.0852 184.688 67.8125 185.574 68.3239C186.461 68.8352 187.512 69.0909 188.728 69.0909C189.534 69.0909 190.273 68.9773 190.944 68.75C191.614 68.5227 192.188 68.1818 192.665 67.7273C193.142 67.2727 193.506 66.7159 193.756 66.0568L200.472 66.5C200.131 68.1136 199.432 69.5227 198.375 70.7273C197.33 71.9205 195.978 72.8523 194.319 73.5227C192.671 74.1818 190.767 74.5114 188.608 74.5114ZM226.668 55.2841L220.02 55.6932C219.907 55.125 219.662 54.6136 219.287 54.1591C218.912 53.6932 218.418 53.3239 217.804 53.0511C217.202 52.767 216.481 52.625 215.64 52.625C214.515 52.625 213.566 52.8636 212.793 53.3409C212.02 53.8068 211.634 54.4318 211.634 55.2159C211.634 55.8409 211.884 56.3693 212.384 56.8011C212.884 57.233 213.742 57.5795 214.958 57.8409L219.696 58.7955C222.242 59.3182 224.14 60.1591 225.39 61.3182C226.64 62.4773 227.265 64 227.265 65.8864C227.265 67.6023 226.759 69.108 225.748 70.4034C224.748 71.6989 223.373 72.7102 221.623 73.4375C219.884 74.1534 217.878 74.5114 215.606 74.5114C212.14 74.5114 209.378 73.7898 207.321 72.3466C205.276 70.892 204.077 68.9148 203.725 66.4148L210.867 66.0398C211.083 67.0966 211.606 67.9034 212.435 68.4602C213.265 69.0057 214.327 69.2784 215.623 69.2784C216.895 69.2784 217.918 69.0341 218.691 68.5455C219.475 68.0455 219.873 67.4034 219.884 66.6193C219.873 65.9602 219.594 65.4205 219.049 65C218.503 64.5682 217.662 64.2386 216.526 64.0114L211.992 63.108C209.435 62.5966 207.532 61.7102 206.282 60.4489C205.043 59.1875 204.424 57.5795 204.424 55.625C204.424 53.9432 204.878 52.4943 205.787 51.2784C206.708 50.0625 207.998 49.125 209.657 48.4659C211.327 47.8068 213.282 47.4773 215.52 47.4773C218.827 47.4773 221.429 48.1761 223.327 49.5739C225.236 50.9716 226.35 52.875 226.668 55.2841ZM238.823 74.4943C237.153 74.4943 235.664 74.2045 234.357 73.625C233.05 73.0341 232.016 72.1648 231.255 71.017C230.505 69.858 230.13 68.4148 230.13 66.6875C230.13 65.233 230.397 64.0114 230.931 63.0227C231.465 62.0341 232.192 61.2386 233.113 60.6364C234.033 60.0341 235.079 59.5795 236.249 59.2727C237.431 58.9659 238.67 58.75 239.965 58.625C241.488 58.4659 242.715 58.3182 243.647 58.1818C244.579 58.0341 245.255 57.8182 245.675 57.5341C246.096 57.25 246.306 56.8295 246.306 56.2727V56.1705C246.306 55.0909 245.965 54.2557 245.283 53.6648C244.613 53.0739 243.658 52.7784 242.42 52.7784C241.113 52.7784 240.073 53.0682 239.3 53.6477C238.528 54.2159 238.016 54.9318 237.766 55.7955L231.05 55.25C231.391 53.6591 232.062 52.2841 233.062 51.125C234.062 49.9545 235.351 49.0568 236.931 48.4318C238.522 47.7955 240.363 47.4773 242.454 47.4773C243.908 47.4773 245.3 47.6477 246.63 47.9886C247.971 48.3295 249.158 48.858 250.192 49.5739C251.238 50.2898 252.062 51.2102 252.664 52.3352C253.266 53.4489 253.567 54.7841 253.567 56.3409V74H246.681V70.3693H246.476C246.056 71.1875 245.493 71.9091 244.789 72.5341C244.084 73.1477 243.238 73.6307 242.249 73.983C241.261 74.3239 240.118 74.4943 238.823 74.4943ZM240.903 69.483C241.971 69.483 242.914 69.2727 243.732 68.8523C244.55 68.4205 245.192 67.8409 245.658 67.1136C246.124 66.3864 246.357 65.5625 246.357 64.642V61.8636C246.13 62.0114 245.817 62.1477 245.42 62.2727C245.033 62.3864 244.596 62.4943 244.107 62.5966C243.618 62.6875 243.13 62.7727 242.641 62.8523C242.153 62.9205 241.709 62.983 241.312 63.0398C240.459 63.1648 239.715 63.3636 239.079 63.6364C238.442 63.9091 237.948 64.2784 237.596 64.7443C237.243 65.1989 237.067 65.767 237.067 66.4489C237.067 67.4375 237.425 68.1932 238.141 68.7159C238.868 69.2273 239.789 69.483 240.903 69.483ZM258.721 74V47.8182H265.982V74H258.721ZM262.369 44.4432C261.289 44.4432 260.363 44.0852 259.59 43.3693C258.829 42.642 258.448 41.7727 258.448 40.7614C258.448 39.7614 258.829 38.9034 259.59 38.1875C260.363 37.4602 261.289 37.0966 262.369 37.0966C263.448 37.0966 264.369 37.4602 265.13 38.1875C265.903 38.9034 266.289 39.7614 266.289 40.7614C266.289 41.7727 265.903 42.642 265.13 43.3693C264.369 44.0852 263.448 44.4432 262.369 44.4432ZM282.085 39.0909H291.187L300.801 62.5455H301.21L310.823 39.0909H319.926V74H312.767V51.2784H312.477L303.443 73.8295H298.568L289.534 51.1932H289.244V74H282.085V39.0909ZM337.322 74.5114C334.629 74.5114 332.311 73.9659 330.367 72.875C328.436 71.7727 326.947 70.2159 325.902 68.2045C324.856 66.1818 324.333 63.7898 324.333 61.0284C324.333 58.3352 324.856 55.9716 325.902 53.9375C326.947 51.9034 328.419 50.3182 330.316 49.1818C332.225 48.0455 334.464 47.4773 337.032 47.4773C338.76 47.4773 340.367 47.7557 341.856 48.3125C343.356 48.858 344.663 49.6818 345.777 50.7841C346.902 51.8864 347.777 53.2727 348.402 54.9432C349.027 56.6023 349.339 58.5455 349.339 60.7727V62.767H327.231V58.267H342.504C342.504 57.2216 342.277 56.2955 341.822 55.4886C341.367 54.6818 340.737 54.0511 339.93 53.5966C339.135 53.1307 338.208 52.8977 337.152 52.8977C336.049 52.8977 335.072 53.1534 334.22 53.6648C333.379 54.1648 332.72 54.8409 332.242 55.6932C331.765 56.5341 331.521 57.4716 331.51 58.5057V62.7841C331.51 64.0795 331.748 65.1989 332.225 66.142C332.714 67.0852 333.402 67.8125 334.288 68.3239C335.174 68.8352 336.225 69.0909 337.441 69.0909C338.248 69.0909 338.987 68.9773 339.657 68.75C340.328 68.5227 340.902 68.1818 341.379 67.7273C341.856 67.2727 342.22 66.7159 342.47 66.0568L349.186 66.5C348.845 68.1136 348.146 69.5227 347.089 70.7273C346.044 71.9205 344.691 72.8523 343.032 73.5227C341.385 74.1818 339.481 74.5114 337.322 74.5114ZM360.859 58.8636V74H353.598V47.8182H360.518V52.4375H360.825C361.405 50.9148 362.376 49.7102 363.74 48.8239C365.103 47.9261 366.757 47.4773 368.7 47.4773C370.518 47.4773 372.103 47.875 373.456 48.6705C374.808 49.4659 375.859 50.6023 376.609 52.0795C377.359 53.5455 377.734 55.2955 377.734 57.3295V74H370.473V58.625C370.484 57.0227 370.075 55.7727 369.245 54.875C368.416 53.9659 367.274 53.5114 365.819 53.5114C364.842 53.5114 363.978 53.7216 363.228 54.142C362.49 54.5625 361.91 55.1761 361.49 55.983C361.081 56.7784 360.87 57.7386 360.859 58.8636ZM386.523 83.8182C385.602 83.8182 384.738 83.7443 383.932 83.5966C383.136 83.4602 382.477 83.2841 381.954 83.0682L383.591 77.6477C384.443 77.9091 385.21 78.0511 385.892 78.0739C386.585 78.0966 387.182 77.9375 387.682 77.5966C388.193 77.2557 388.608 76.6761 388.926 75.858L389.352 74.75L379.96 47.8182H387.596L393.017 67.0455H393.29L398.761 47.8182H406.449L396.273 76.8295C395.784 78.2386 395.119 79.4659 394.278 80.5114C393.449 81.5682 392.398 82.3807 391.125 82.9489C389.852 83.5284 388.318 83.8182 386.523 83.8182ZM420.773 74.5114C418.079 74.5114 415.761 73.9659 413.818 72.875C411.886 71.7727 410.398 70.2159 409.352 68.2045C408.307 66.1818 407.784 63.7898 407.784 61.0284C407.784 58.3352 408.307 55.9716 409.352 53.9375C410.398 51.9034 411.869 50.3182 413.767 49.1818C415.676 48.0455 417.915 47.4773 420.483 47.4773C422.21 47.4773 423.818 47.7557 425.307 48.3125C426.807 48.858 428.114 49.6818 429.227 50.7841C430.352 51.8864 431.227 53.2727 431.852 54.9432C432.477 56.6023 432.79 58.5455 432.79 60.7727V62.767H410.682V58.267H425.954C425.954 57.2216 425.727 56.2955 425.273 55.4886C424.818 54.6818 424.187 54.0511 423.381 53.5966C422.585 53.1307 421.659 52.8977 420.602 52.8977C419.5 52.8977 418.523 53.1534 417.67 53.6648C416.829 54.1648 416.17 54.8409 415.693 55.6932C415.216 56.5341 414.972 57.4716 414.96 58.5057V62.7841C414.96 64.0795 415.199 65.1989 415.676 66.142C416.165 67.0852 416.852 67.8125 417.739 68.3239C418.625 68.8352 419.676 69.0909 420.892 69.0909C421.699 69.0909 422.437 68.9773 423.108 68.75C423.778 68.5227 424.352 68.1818 424.829 67.7273C425.307 67.2727 425.67 66.7159 425.92 66.0568L432.636 66.5C432.295 68.1136 431.597 69.5227 430.54 70.7273C429.494 71.9205 428.142 72.8523 426.483 73.5227C424.835 74.1818 422.932 74.5114 420.773 74.5114ZM450.974 47.8182V53.2727H435.207V47.8182H450.974ZM438.787 41.5455H446.048V65.9545C446.048 66.625 446.151 67.1477 446.355 67.5227C446.56 67.8864 446.844 68.142 447.207 68.2898C447.582 68.4375 448.014 68.5114 448.503 68.5114C448.844 68.5114 449.185 68.483 449.526 68.4261C449.867 68.358 450.128 68.3068 450.31 68.2727L451.452 73.6761C451.088 73.7898 450.577 73.9205 449.918 74.0682C449.259 74.2273 448.457 74.3239 447.514 74.358C445.764 74.4261 444.23 74.1932 442.912 73.6591C441.605 73.125 440.588 72.2955 439.861 71.1705C439.134 70.0455 438.776 68.625 438.787 66.9091V41.5455ZM466.773 74.5114C464.125 74.5114 461.835 73.9489 459.904 72.8239C457.983 71.6875 456.5 70.108 455.455 68.0852C454.409 66.0511 453.887 63.6932 453.887 61.0114C453.887 58.3068 454.409 55.9432 455.455 53.9205C456.5 51.8864 457.983 50.3068 459.904 49.1818C461.835 48.0455 464.125 47.4773 466.773 47.4773C469.421 47.4773 471.705 48.0455 473.625 49.1818C475.557 50.3068 477.046 51.8864 478.091 53.9205C479.137 55.9432 479.659 58.3068 479.659 61.0114C479.659 63.6932 479.137 66.0511 478.091 68.0852C477.046 70.108 475.557 71.6875 473.625 72.8239C471.705 73.9489 469.421 74.5114 466.773 74.5114ZM466.807 68.8864C468.012 68.8864 469.017 68.5455 469.824 67.8636C470.631 67.1705 471.239 66.2273 471.648 65.0341C472.068 63.8409 472.279 62.483 472.279 60.9602C472.279 59.4375 472.068 58.0795 471.648 56.8864C471.239 55.6932 470.631 54.75 469.824 54.0568C469.017 53.3636 468.012 53.017 466.807 53.017C465.591 53.017 464.568 53.3636 463.739 54.0568C462.921 54.75 462.301 55.6932 461.881 56.8864C461.472 58.0795 461.267 59.4375 461.267 60.9602C461.267 62.483 461.472 63.8409 461.881 65.0341C462.301 66.2273 462.921 67.1705 463.739 67.8636C464.568 68.5455 465.591 68.8864 466.807 68.8864ZM483.901 74V47.8182H490.941V52.3864H491.213C491.691 50.7614 492.492 49.5341 493.617 48.7045C494.742 47.8636 496.037 47.4432 497.503 47.4432C497.867 47.4432 498.259 47.4659 498.679 47.5114C499.1 47.5568 499.469 47.6193 499.787 47.6989V54.142C499.446 54.0398 498.975 53.9489 498.372 53.8693C497.77 53.7898 497.219 53.75 496.719 53.75C495.651 53.75 494.696 53.983 493.855 54.4489C493.026 54.9034 492.367 55.5398 491.878 56.358C491.401 57.1761 491.162 58.1193 491.162 59.1875V74H483.901Z" fill="white"/>
</svg>
