<svg width="254" height="61" viewBox="0 0 254 61" fill="none" xmlns="http://www.w3.org/2000/svg">
<path d="M0 60.033V0H23.3717C27.6467 0 31.4154 0.752091 34.6778 2.25628C37.9965 3.70674 40.584 5.85558 42.4402 8.70278C44.2965 11.4963 45.2246 14.9075 45.2246 18.9366C45.2246 23.0731 44.184 26.5918 42.1028 29.4927C40.0778 32.3937 37.3216 34.5425 33.8341 35.9392L46.8291 60.033L11.4749 37.8732V60.033H0ZM11.4749 28.2034L5.63259e-05 30.4597L0 34.8139C2.08123 34.8139 27.4217 27.8274 28.9404 27.0753C30.4591 26.2695 31.6404 25.1682 32.4841 23.7715C33.3278 22.3747 33.7497 20.7631 33.7497 18.9366C33.7497 17.0564 33.3278 15.4447 32.4841 14.1017C31.6404 12.705 30.4591 11.6306 28.9404 10.8785C27.4217 10.0727 25.6217 9.66975 23.5404 9.66975H11.4749V28.2034ZM72.3811 61C67.6562 61 63.5218 59.9793 59.9781 57.9379C56.4344 55.8965 53.6783 53.1299 51.7096 49.638C49.7408 46.1462 48.7564 42.2783 48.7564 38.0343C48.7564 33.6292 49.7408 29.7345 51.7096 26.3501C53.7345 22.9119 56.4625 20.199 59.8937 18.2114C63.3812 16.2237 67.2624 15.2299 71.5374 15.2299C75.1374 15.2299 78.2873 15.7939 80.9873 16.9221C83.7435 18.0502 86.0779 19.6081 87.9904 21.5958C89.9029 23.5834 91.3653 25.8666 92.3778 28.4452C93.3903 30.9701 93.8965 33.7098 93.8965 36.6645C93.8965 37.4166 93.8403 38.1955 93.7278 39.0013C93.6716 39.8071 93.5309 40.5055 93.3059 41.0964H57.8687L55.2665 38.545L55.7111 36.8256H81.831C82.3373 34.3545 82.1966 32.1519 81.4092 30.218C81.4092 30.218 79.4404 26.753 77.6967 25.6248C76.0092 24.4967 73.9561 23.9326 71.5374 23.9326C69.2312 23.9326 67.178 24.4967 65.378 25.6248C63.5781 26.6993 62.2 28.3109 61.2437 30.4597C60.3437 32.5548 60.0062 35.1066 60.2312 38.1149C60.0062 40.801 60.3719 43.1915 61.3281 45.2867C62.3406 47.3281 63.8031 48.9128 65.7155 50.041C67.6843 51.1691 69.9343 51.7332 72.4655 51.7332C74.9967 51.7332 77.1342 51.2228 78.8779 50.2021C80.6779 49.1814 82.0842 47.8115 83.0967 46.0925L92.0403 50.2827C91.1403 52.3778 89.7341 54.2312 87.8216 55.8428C85.9091 57.4544 83.631 58.7169 80.9873 59.6301C78.3998 60.5434 75.5311 61 72.3811 61ZM113.601 60.033L95.5452 16.1968H107.611L120.689 50.6856H116.217L129.379 16.1968H141.445L123.389 60.033H113.601ZM145.867 60.033V16.1968H156.92V60.033H145.867ZM145.867 11.2814V0H156.92V11.2814H145.867ZM179.275 60.033L161.219 16.1968H173.284L186.362 50.6856H181.89L195.053 16.1968H207.118L189.062 60.033H179.275ZM232.485 61C227.76 61 223.625 59.9793 220.082 57.9379C216.538 55.8965 213.782 53.1299 211.813 49.638C209.844 46.1462 208.86 42.2783 208.86 38.0343C208.86 33.6292 209.844 29.7345 211.813 26.3501C213.838 22.9119 216.566 20.199 219.997 18.2114C223.485 16.2237 227.366 15.2299 231.641 15.2299C235.241 15.2299 238.391 15.7939 241.091 16.9221C243.847 18.0502 246.181 19.6081 248.094 21.5958C250.006 23.5834 251.469 25.8666 252.481 28.4452C253.494 30.9701 254 33.7098 254 36.6645C254 37.4166 253.944 38.1955 253.831 39.0013C253.775 39.8071 253.634 40.5055 253.409 41.0964H217.972V33.0383H247.166L241.934 36.8256C242.441 34.3545 242.3 32.1519 241.513 30.218C240.781 28.284 239.544 26.753 237.8 25.6248C236.113 24.4967 234.06 23.9326 231.641 23.9326C229.335 23.9326 227.282 24.4967 225.482 25.6248C223.682 26.6993 222.303 28.3109 221.347 30.4597C220.447 32.5548 220.11 35.1066 220.335 38.1149C220.11 40.801 220.475 43.1915 221.432 45.2867C222.444 47.3281 223.907 48.9128 225.819 50.041C227.788 51.1691 230.038 51.7332 232.569 51.7332C235.1 51.7332 237.238 51.2228 238.981 50.2021C240.781 49.1814 242.188 47.8115 243.2 46.0925L252.144 50.2827C251.244 52.3778 249.838 54.2312 247.925 55.8428C246.013 57.4544 243.734 58.7169 241.091 59.6301C238.503 60.5434 235.635 61 232.485 61Z" fill="#1BAE80"/>
</svg>
